# xmcd
#
# Track frame offsets:
#	150
#	14003
#	27827
#	37712
#	50719
#	67640
#	82134
#	94094
#	109787
#	123529
#	138731
#	150264
#	165508
#	177495
#	196020
#
# Disc length: 2787 seconds
#
# Revision: 1
# Processed by: cddbd v1.5.2PL0 Copyright (c) Steve Scherf et al.
# Submitted via: audiograbber 1.83.01
#
DISCID=bd0ae10f
DTITLE=Da Zillertaler und die Geigerin - Madonna, Madonna
DYEAR=2009
DGENRE=Volkstümlich
TTITLE0=Madonna, Madonna
TTITLE1=Rehbraune Augen
TTITLE2=Misthaufen Boarischer
TTITLE3=Des isch Tirol
TTITLE4=Eine Hand voll Träume
TTITLE5=Wien bleibt Wien
TTITLE6=Es muss alles so sein
TTITLE7=Vom Hoamgian well ma nix wissn
TTITLE8=Ich kann dich einfach nicht vergessen
TTITLE9=Für's Zillertal do geig' ma
TTITLE10=Weil i koa Hosnscheißa bin
TTITLE11=Dem Land Tirol die Treue
TTITLE12=Vom Zillertal da kommen wir
TTITLE13=Bei der Geigerin - Medley
TTITLE14=Umerdraner Polka
EXTD=
EXTT0=
EXTT1=
EXTT2=
EXTT3=
EXTT4=
EXTT5=
EXTT6=
EXTT7=
EXTT8=
EXTT9=
EXTT10=
EXTT11=
EXTT12=
EXTT13=
EXTT14=
PLAYORDER=
